<svg width="40" height="40" viewBox="0 0 40 40" fill="none" xmlns="http://www.w3.org/2000/svg">
<g id="solar:calendar-date-linear">
<g id="Group">
<path id="Vector" d="M3.33334 20C3.33334 13.715 3.33334 10.5716 5.28668 8.61996C7.24001 6.66829 10.3817 6.66663 16.6667 6.66663H23.3333C29.6183 6.66663 32.7617 6.66663 34.7133 8.61996C36.665 10.5733 36.6667 13.715 36.6667 20V23.3333C36.6667 29.6183 36.6667 32.7616 34.7133 34.7133C32.76 36.665 29.6183 36.6666 23.3333 36.6666H16.6667C10.3817 36.6666 7.23834 36.6666 5.28668 34.7133C3.33501 32.76 3.33334 29.6183 3.33334 23.3333V20Z" stroke="black" stroke-width="1.5"/>
<path id="Vector_2" d="M11.6667 6.66663V4.16663M28.3334 6.66663V4.16663" stroke="black" stroke-width="1.5" stroke-linecap="round"/>
<path id="Vector_3" d="M15 24.1666L17.5 21.6666V28.3333" stroke="black" stroke-width="1.5" stroke-linecap="round" stroke-linejoin="round"/>
<path id="Vector_4" d="M4.16669 15H35.8334M21.6667 26.6667V23.3333C21.6667 22.8913 21.8423 22.4674 22.1548 22.1548C22.4674 21.8423 22.8913 21.6667 23.3334 21.6667C23.7754 21.6667 24.1993 21.8423 24.5119 22.1548C24.8244 22.4674 25 22.8913 25 23.3333V26.6667C25 27.1087 24.8244 27.5326 24.5119 27.8452C24.1993 28.1577 23.7754 28.3333 23.3334 28.3333C22.8913 28.3333 22.4674 28.1577 22.1548 27.8452C21.8423 27.5326 21.6667 27.1087 21.6667 26.6667Z" stroke="black" stroke-width="1.5" stroke-linecap="round"/>
</g>
</g>
</svg>
