<svg width="40" height="40" viewBox="0 0 40 40" fill="none" xmlns="http://www.w3.org/2000/svg">
<g id="hugeicons:time-03">
<path id="Vector" d="M15 15L21.6667 21.6666M26.6667 13.3333L18.3333 21.6666M4.16666 20C4.16666 12.5366 4.16666 8.80329 6.485 6.48496C8.80333 4.16663 12.535 4.16663 20 4.16663C27.4633 4.16663 31.1967 4.16663 33.515 6.48496C35.8333 8.80329 35.8333 12.535 35.8333 20C35.8333 27.4633 35.8333 31.1966 33.515 33.515C31.1967 35.8333 27.465 35.8333 20 35.8333C12.5367 35.8333 8.80333 35.8333 6.485 33.515C4.16666 31.1966 4.16666 27.465 4.16666 20Z" stroke="black" stroke-width="1.5" stroke-linecap="round" stroke-linejoin="round"/>
</g>
</svg>
