<svg width="444" height="208" viewBox="0 0 444 208" fill="none" xmlns="http://www.w3.org/2000/svg">
<mask id="path-1-outside-1_7_155" maskUnits="userSpaceOnUse" x="0" y="0" width="444" height="208" fill="black">
<rect fill="white" width="444" height="208"/>
<path d="M8.76578 206.959C3.58859 206.581 1 204.976 1 202.143C1 200.821 1.57524 199.215 2.72573 197.327C3.30097 195.627 4.25971 194.494 5.60194 193.927C4.45146 196.382 3.87621 198.365 3.87621 199.876C3.87621 202.709 6.17718 204.126 10.7791 204.126C21.517 204.126 35.0352 199.215 51.3338 189.394C41.9381 185.239 37.2403 179.101 37.2403 170.98C37.2403 165.503 39.5413 159.931 44.1432 154.265C53.7306 142.744 68.3993 134.717 88.1493 130.185C85.6566 123.008 84.4102 114.886 84.4102 105.821C84.4102 94.3 86.3277 83.4402 90.1627 73.2414C96.2986 56.4323 104.448 43.5894 114.61 34.7127C123.431 26.9691 132.347 23.0974 141.359 23.0974C147.879 23.0974 153.248 25.2693 157.466 29.6133C161.685 33.7683 163.794 39.6232 163.794 47.1778C163.794 53.4104 161.876 60.7762 158.041 69.2752C149.796 86.8398 135.415 105.726 114.898 125.935L126.115 124.802C132.635 118.569 139.25 111.676 145.961 104.121C152.864 96.3776 159.959 88.0674 167.245 79.1907C187.379 54.4492 197.445 37.6401 197.445 28.7634C197.445 24.6083 195.144 22.4363 190.543 22.2475C189.392 22.2475 188.817 21.8697 188.817 21.1143C188.817 20.1699 189.776 19.6978 191.693 19.6978C200.705 20.0755 205.211 23.7584 205.211 30.7465C205.211 35.2793 203.198 41.4174 199.171 49.1609C199.746 49.9164 199.842 51.144 199.459 52.8438C197.733 59.8319 195.528 69.0864 192.844 80.6072C190.351 91.9392 187.475 105.538 184.215 121.402C199.171 119.136 206.649 113.092 206.649 103.271C206.649 101.949 207.225 101.288 208.375 101.288C208.95 101.288 209.43 101.76 209.813 102.705C210.388 115.359 201.664 123.102 183.64 125.935C182.873 130.846 182.297 135.378 181.914 139.534C181.53 143.689 181.339 147.56 181.339 151.149C181.339 154.171 181.435 156.909 181.626 159.365C182.01 161.82 182.393 164.086 182.777 166.164C184.886 174.663 188.721 178.912 194.282 178.912C199.075 178.912 205.02 175.701 212.114 169.28C213.456 168.147 215.278 166.353 217.579 163.897C219.88 161.253 222.852 158.042 226.495 154.265C228.029 152.754 229.084 151.999 229.659 151.999C230.426 151.999 230.81 152.471 230.81 153.415C230.81 153.982 230.618 154.643 230.234 155.398C227.55 158.798 224.674 162.009 221.606 165.031C218.538 167.864 215.182 170.602 211.539 173.246C203.294 179.668 195.911 182.878 189.392 182.878C180.188 182.878 174.244 176.363 171.56 163.331C170.984 160.687 170.697 157.57 170.697 153.982C170.697 146.427 171.847 137.456 174.148 127.068C169.163 127.257 162.835 127.541 155.165 127.918C147.687 128.107 138.962 128.39 128.992 128.768L105.119 151.149C112.214 157.004 121.322 159.931 132.443 159.931C140.113 159.931 145.865 158.042 149.7 154.265C150.084 153.699 150.563 153.699 151.138 154.265C151.522 154.832 151.522 155.304 151.138 155.682C146.92 159.837 140.688 161.914 132.443 161.914C120.746 161.914 110.967 158.892 103.106 152.849C83.7391 170.791 68.591 182.973 57.6614 189.394C63.2221 192.038 70.0291 193.738 78.0826 194.494C79.4248 194.683 80.0959 195.06 80.0959 195.627C80.0959 196.571 79.0413 196.855 76.9321 196.477C68.1117 195.532 60.7294 193.738 54.7852 191.094C35.4187 202.237 20.0789 207.525 8.76578 206.959ZM91.6008 129.335C94.2852 128.957 97.2573 128.485 100.517 127.918C103.777 127.352 107.324 126.879 111.159 126.502C130.717 106.671 145.098 87.312 154.302 68.4253C158.329 60.1152 160.342 52.655 160.342 46.0447C160.342 39.6232 158.521 34.5238 154.877 30.7465C151.426 26.9691 147.016 25.0805 141.647 25.0805C133.593 25.0805 125.444 28.8578 117.199 36.4125C107.995 45.1003 100.421 57.4711 94.477 73.5247C90.4503 84.2901 88.4369 95.6221 88.4369 107.521C88.4369 111.676 88.7245 115.548 89.2998 119.136C89.875 122.724 90.642 126.124 91.6008 129.335ZM134.456 124.235C136.949 123.858 139.921 123.574 143.373 123.385C146.824 123.197 150.659 123.102 154.877 123.102C159.863 122.913 164.081 122.819 167.533 122.819C170.984 122.819 173.477 122.724 175.011 122.536C176.161 118.003 177.6 112.903 179.325 107.237C181.051 101.571 182.873 95.4332 184.79 88.8229L194.282 57.9432C186.42 70.4084 177.216 82.1181 166.67 93.0724C163.985 96.0943 159.863 100.155 154.302 105.254C148.933 110.354 142.318 116.681 134.456 124.235ZM101.668 148.033L120.938 129.901L108.283 132.168L97.3532 142.367C98.1202 143.311 98.7913 144.255 99.3665 145.2C100.134 146.144 100.901 147.088 101.668 148.033ZM96.2027 140.383C97.5449 139.25 98.7913 138.117 99.9418 136.984C101.284 135.851 102.626 134.623 103.968 133.301C102.243 133.679 100.517 134.151 98.7913 134.717C97.0656 135.095 95.4357 135.567 93.9017 136.134L96.2027 140.383ZM54.4976 187.694C59.6748 184.484 66.0024 179.762 73.4806 173.53C81.1505 167.108 89.9709 159.176 99.9418 149.732C98.216 147.844 96.5862 145.955 95.0522 144.066L93.0389 145.766C78.2743 158.042 69.9333 164.181 68.0158 164.181C67.4406 164.181 67.1529 163.897 67.1529 163.331C66.9612 162.953 67.0571 162.575 67.4406 162.198C74.9187 157.476 83.7391 150.866 93.9017 142.367C92.943 140.856 91.9843 139.061 91.0255 136.984C80.4794 140.383 70.9879 145.011 62.551 150.866C51.4296 158.42 45.8689 166.069 45.8689 173.813C45.8689 178.723 48.7452 183.351 54.4976 187.694Z"/>
<path d="M289.123 183.728C274.55 183.728 263.332 180.706 255.471 174.663C248.568 169.186 245.116 161.725 245.116 152.282C245.116 145.105 246.938 137.55 250.581 129.618C245.212 127.163 240.706 123.48 237.063 118.569C233.612 113.47 231.886 107.898 231.886 101.855C231.886 87.8786 237.926 74.9412 250.006 63.0426C260.936 52.2772 275.7 43.4005 294.3 36.4125C301.394 26.2137 310.311 17.9035 321.049 11.4821C332.362 4.49403 343.866 1 355.563 1C364.192 1 371.191 2.98309 376.559 6.94928C382.12 11.4821 385.667 17.998 387.201 26.497C414.813 31.4075 432.262 42.8339 439.549 60.7762C441.85 66.4422 443 72.2027 443 78.0575C443 91.8448 436.672 106.86 424.017 123.102C409.061 141.989 388.735 156.909 363.041 167.864C338.306 178.44 313.666 183.728 289.123 183.728ZM299.765 34.4294C308.393 31.4075 317.118 29.1411 325.938 27.6302C334.758 25.9304 343.579 24.8916 352.399 24.5139C353.933 24.325 355.467 24.2306 357.001 24.2306C358.727 24.2306 360.261 24.2306 361.603 24.2306C365.246 24.2306 368.794 24.4194 372.245 24.7972C375.697 24.986 378.956 25.2693 382.024 25.6471C379.723 10.3489 371.095 2.69979 356.138 2.69979C351.345 2.69979 345.496 3.73856 338.593 5.81608C323.445 10.9155 310.502 20.4532 299.765 34.4294ZM302.641 130.185C323.158 127.163 341.086 116.397 356.426 97.8885C369.273 82.4014 377.614 65.0257 381.449 45.7613C381.833 43.3061 382.12 40.9453 382.312 38.6789C382.695 36.2236 382.791 33.8628 382.599 31.5964C379.915 31.2186 377.039 30.9353 373.971 30.7465C371.095 30.5576 368.123 30.4632 365.055 30.4632C362.945 30.4632 360.74 30.5576 358.439 30.7465C356.33 30.7465 354.125 30.8409 351.824 31.0298C341.661 31.9741 331.499 33.7683 321.336 36.4125C311.365 39.0566 301.586 42.5506 291.999 46.8945C286.055 58.6043 283.082 71.3528 283.082 85.14V89.3895C293.053 81.0794 303.983 73.9025 315.871 67.8587C321.432 65.0257 326.705 62.7593 331.691 61.0595C336.676 59.1709 341.278 57.8488 345.496 57.0933C347.222 56.7156 348.085 56.9989 348.085 57.9432C348.085 59.0764 347.414 59.7375 346.072 59.9263C336.676 61.6261 326.513 65.8756 315.584 72.6748C303.887 79.6629 293.533 88.3507 284.521 98.7384C287.205 111.392 293.245 121.875 302.641 130.185ZM288.835 178.062C340.223 178.062 382.408 157.098 415.388 115.17C427.085 100.249 432.933 86.3676 432.933 73.5247C432.933 62.9482 428.811 53.977 420.566 46.6112C412.32 39.6232 401.295 34.9015 387.489 32.4463C387.681 34.5238 387.585 36.6958 387.201 38.9622C387.01 41.0397 386.722 43.3061 386.339 45.7613C384.229 56.149 380.97 65.9701 376.559 75.2245C372.149 84.479 366.589 93.1668 359.877 101.288C345.305 118.853 327.856 129.901 307.53 134.434C318.843 142.367 331.499 146.333 345.496 146.333C358.535 146.333 370.04 142.744 380.011 135.567L380.874 135.284C381.257 135.284 381.641 135.473 382.024 135.851C382.024 136.417 381.833 136.889 381.449 137.267C371.478 144.633 359.302 148.316 344.921 148.316C329.39 148.316 315.68 143.972 303.791 135.284C301.298 135.662 298.806 135.945 296.313 136.134C294.012 136.323 291.519 136.417 288.835 136.417C280.014 136.417 271.29 135.19 262.661 132.734C259.977 139.534 258.635 145.672 258.635 151.149C258.635 159.648 261.223 166.258 266.4 170.98C271.769 175.701 279.248 178.062 288.835 178.062ZM253.457 123.952C259.593 112.809 268.222 102.327 279.343 92.5058C279.152 91.3726 279.056 90.2394 279.056 89.1062C279.056 87.7841 279.056 86.4621 279.056 85.14C279.056 72.4859 281.644 60.4929 286.822 49.1609C272.249 56.149 260.744 64.0814 252.307 72.9581C243.103 82.2126 238.501 91.6559 238.501 101.288C238.501 106.199 239.843 110.731 242.528 114.886C245.404 119.042 249.047 122.063 253.457 123.952ZM289.985 131.318C291.519 131.318 292.957 131.318 294.3 131.318C295.834 131.129 297.272 130.94 298.614 130.751C289.985 123.197 284.233 113.753 281.357 102.421C274.262 110.543 268.797 119.042 264.962 127.918C273.591 130.185 281.932 131.318 289.985 131.318Z"/>
</mask>
<path d="M8.76578 206.959C3.58859 206.581 1 204.976 1 202.143C1 200.821 1.57524 199.215 2.72573 197.327C3.30097 195.627 4.25971 194.494 5.60194 193.927C4.45146 196.382 3.87621 198.365 3.87621 199.876C3.87621 202.709 6.17718 204.126 10.7791 204.126C21.517 204.126 35.0352 199.215 51.3338 189.394C41.9381 185.239 37.2403 179.101 37.2403 170.98C37.2403 165.503 39.5413 159.931 44.1432 154.265C53.7306 142.744 68.3993 134.717 88.1493 130.185C85.6566 123.008 84.4102 114.886 84.4102 105.821C84.4102 94.3 86.3277 83.4402 90.1627 73.2414C96.2986 56.4323 104.448 43.5894 114.61 34.7127C123.431 26.9691 132.347 23.0974 141.359 23.0974C147.879 23.0974 153.248 25.2693 157.466 29.6133C161.685 33.7683 163.794 39.6232 163.794 47.1778C163.794 53.4104 161.876 60.7762 158.041 69.2752C149.796 86.8398 135.415 105.726 114.898 125.935L126.115 124.802C132.635 118.569 139.25 111.676 145.961 104.121C152.864 96.3776 159.959 88.0674 167.245 79.1907C187.379 54.4492 197.445 37.6401 197.445 28.7634C197.445 24.6083 195.144 22.4363 190.543 22.2475C189.392 22.2475 188.817 21.8697 188.817 21.1143C188.817 20.1699 189.776 19.6978 191.693 19.6978C200.705 20.0755 205.211 23.7584 205.211 30.7465C205.211 35.2793 203.198 41.4174 199.171 49.1609C199.746 49.9164 199.842 51.144 199.459 52.8438C197.733 59.8319 195.528 69.0864 192.844 80.6072C190.351 91.9392 187.475 105.538 184.215 121.402C199.171 119.136 206.649 113.092 206.649 103.271C206.649 101.949 207.225 101.288 208.375 101.288C208.95 101.288 209.43 101.76 209.813 102.705C210.388 115.359 201.664 123.102 183.64 125.935C182.873 130.846 182.297 135.378 181.914 139.534C181.53 143.689 181.339 147.56 181.339 151.149C181.339 154.171 181.435 156.909 181.626 159.365C182.01 161.82 182.393 164.086 182.777 166.164C184.886 174.663 188.721 178.912 194.282 178.912C199.075 178.912 205.02 175.701 212.114 169.28C213.456 168.147 215.278 166.353 217.579 163.897C219.88 161.253 222.852 158.042 226.495 154.265C228.029 152.754 229.084 151.999 229.659 151.999C230.426 151.999 230.81 152.471 230.81 153.415C230.81 153.982 230.618 154.643 230.234 155.398C227.55 158.798 224.674 162.009 221.606 165.031C218.538 167.864 215.182 170.602 211.539 173.246C203.294 179.668 195.911 182.878 189.392 182.878C180.188 182.878 174.244 176.363 171.56 163.331C170.984 160.687 170.697 157.57 170.697 153.982C170.697 146.427 171.847 137.456 174.148 127.068C169.163 127.257 162.835 127.541 155.165 127.918C147.687 128.107 138.962 128.39 128.992 128.768L105.119 151.149C112.214 157.004 121.322 159.931 132.443 159.931C140.113 159.931 145.865 158.042 149.7 154.265C150.084 153.699 150.563 153.699 151.138 154.265C151.522 154.832 151.522 155.304 151.138 155.682C146.92 159.837 140.688 161.914 132.443 161.914C120.746 161.914 110.967 158.892 103.106 152.849C83.7391 170.791 68.591 182.973 57.6614 189.394C63.2221 192.038 70.0291 193.738 78.0826 194.494C79.4248 194.683 80.0959 195.06 80.0959 195.627C80.0959 196.571 79.0413 196.855 76.9321 196.477C68.1117 195.532 60.7294 193.738 54.7852 191.094C35.4187 202.237 20.0789 207.525 8.76578 206.959ZM91.6008 129.335C94.2852 128.957 97.2573 128.485 100.517 127.918C103.777 127.352 107.324 126.879 111.159 126.502C130.717 106.671 145.098 87.312 154.302 68.4253C158.329 60.1152 160.342 52.655 160.342 46.0447C160.342 39.6232 158.521 34.5238 154.877 30.7465C151.426 26.9691 147.016 25.0805 141.647 25.0805C133.593 25.0805 125.444 28.8578 117.199 36.4125C107.995 45.1003 100.421 57.4711 94.477 73.5247C90.4503 84.2901 88.4369 95.6221 88.4369 107.521C88.4369 111.676 88.7245 115.548 89.2998 119.136C89.875 122.724 90.642 126.124 91.6008 129.335ZM134.456 124.235C136.949 123.858 139.921 123.574 143.373 123.385C146.824 123.197 150.659 123.102 154.877 123.102C159.863 122.913 164.081 122.819 167.533 122.819C170.984 122.819 173.477 122.724 175.011 122.536C176.161 118.003 177.6 112.903 179.325 107.237C181.051 101.571 182.873 95.4332 184.79 88.8229L194.282 57.9432C186.42 70.4084 177.216 82.1181 166.67 93.0724C163.985 96.0943 159.863 100.155 154.302 105.254C148.933 110.354 142.318 116.681 134.456 124.235ZM101.668 148.033L120.938 129.901L108.283 132.168L97.3532 142.367C98.1202 143.311 98.7913 144.255 99.3665 145.2C100.134 146.144 100.901 147.088 101.668 148.033ZM96.2027 140.383C97.5449 139.25 98.7913 138.117 99.9418 136.984C101.284 135.851 102.626 134.623 103.968 133.301C102.243 133.679 100.517 134.151 98.7913 134.717C97.0656 135.095 95.4357 135.567 93.9017 136.134L96.2027 140.383ZM54.4976 187.694C59.6748 184.484 66.0024 179.762 73.4806 173.53C81.1505 167.108 89.9709 159.176 99.9418 149.732C98.216 147.844 96.5862 145.955 95.0522 144.066L93.0389 145.766C78.2743 158.042 69.9333 164.181 68.0158 164.181C67.4406 164.181 67.1529 163.897 67.1529 163.331C66.9612 162.953 67.0571 162.575 67.4406 162.198C74.9187 157.476 83.7391 150.866 93.9017 142.367C92.943 140.856 91.9843 139.061 91.0255 136.984C80.4794 140.383 70.9879 145.011 62.551 150.866C51.4296 158.42 45.8689 166.069 45.8689 173.813C45.8689 178.723 48.7452 183.351 54.4976 187.694Z" fill="#974B00" fill-opacity="0.2"/>
<path d="M289.123 183.728C274.55 183.728 263.332 180.706 255.471 174.663C248.568 169.186 245.116 161.725 245.116 152.282C245.116 145.105 246.938 137.55 250.581 129.618C245.212 127.163 240.706 123.48 237.063 118.569C233.612 113.47 231.886 107.898 231.886 101.855C231.886 87.8786 237.926 74.9412 250.006 63.0426C260.936 52.2772 275.7 43.4005 294.3 36.4125C301.394 26.2137 310.311 17.9035 321.049 11.4821C332.362 4.49403 343.866 1 355.563 1C364.192 1 371.191 2.98309 376.559 6.94928C382.12 11.4821 385.667 17.998 387.201 26.497C414.813 31.4075 432.262 42.8339 439.549 60.7762C441.85 66.4422 443 72.2027 443 78.0575C443 91.8448 436.672 106.86 424.017 123.102C409.061 141.989 388.735 156.909 363.041 167.864C338.306 178.44 313.666 183.728 289.123 183.728ZM299.765 34.4294C308.393 31.4075 317.118 29.1411 325.938 27.6302C334.758 25.9304 343.579 24.8916 352.399 24.5139C353.933 24.325 355.467 24.2306 357.001 24.2306C358.727 24.2306 360.261 24.2306 361.603 24.2306C365.246 24.2306 368.794 24.4194 372.245 24.7972C375.697 24.986 378.956 25.2693 382.024 25.6471C379.723 10.3489 371.095 2.69979 356.138 2.69979C351.345 2.69979 345.496 3.73856 338.593 5.81608C323.445 10.9155 310.502 20.4532 299.765 34.4294ZM302.641 130.185C323.158 127.163 341.086 116.397 356.426 97.8885C369.273 82.4014 377.614 65.0257 381.449 45.7613C381.833 43.3061 382.12 40.9453 382.312 38.6789C382.695 36.2236 382.791 33.8628 382.599 31.5964C379.915 31.2186 377.039 30.9353 373.971 30.7465C371.095 30.5576 368.123 30.4632 365.055 30.4632C362.945 30.4632 360.74 30.5576 358.439 30.7465C356.33 30.7465 354.125 30.8409 351.824 31.0298C341.661 31.9741 331.499 33.7683 321.336 36.4125C311.365 39.0566 301.586 42.5506 291.999 46.8945C286.055 58.6043 283.082 71.3528 283.082 85.14V89.3895C293.053 81.0794 303.983 73.9025 315.871 67.8587C321.432 65.0257 326.705 62.7593 331.691 61.0595C336.676 59.1709 341.278 57.8488 345.496 57.0933C347.222 56.7156 348.085 56.9989 348.085 57.9432C348.085 59.0764 347.414 59.7375 346.072 59.9263C336.676 61.6261 326.513 65.8756 315.584 72.6748C303.887 79.6629 293.533 88.3507 284.521 98.7384C287.205 111.392 293.245 121.875 302.641 130.185ZM288.835 178.062C340.223 178.062 382.408 157.098 415.388 115.17C427.085 100.249 432.933 86.3676 432.933 73.5247C432.933 62.9482 428.811 53.977 420.566 46.6112C412.32 39.6232 401.295 34.9015 387.489 32.4463C387.681 34.5238 387.585 36.6958 387.201 38.9622C387.01 41.0397 386.722 43.3061 386.339 45.7613C384.229 56.149 380.97 65.9701 376.559 75.2245C372.149 84.479 366.589 93.1668 359.877 101.288C345.305 118.853 327.856 129.901 307.53 134.434C318.843 142.367 331.499 146.333 345.496 146.333C358.535 146.333 370.04 142.744 380.011 135.567L380.874 135.284C381.257 135.284 381.641 135.473 382.024 135.851C382.024 136.417 381.833 136.889 381.449 137.267C371.478 144.633 359.302 148.316 344.921 148.316C329.39 148.316 315.68 143.972 303.791 135.284C301.298 135.662 298.806 135.945 296.313 136.134C294.012 136.323 291.519 136.417 288.835 136.417C280.014 136.417 271.29 135.19 262.661 132.734C259.977 139.534 258.635 145.672 258.635 151.149C258.635 159.648 261.223 166.258 266.4 170.98C271.769 175.701 279.248 178.062 288.835 178.062ZM253.457 123.952C259.593 112.809 268.222 102.327 279.343 92.5058C279.152 91.3726 279.056 90.2394 279.056 89.1062C279.056 87.7841 279.056 86.4621 279.056 85.14C279.056 72.4859 281.644 60.4929 286.822 49.1609C272.249 56.149 260.744 64.0814 252.307 72.9581C243.103 82.2126 238.501 91.6559 238.501 101.288C238.501 106.199 239.843 110.731 242.528 114.886C245.404 119.042 249.047 122.063 253.457 123.952ZM289.985 131.318C291.519 131.318 292.957 131.318 294.3 131.318C295.834 131.129 297.272 130.94 298.614 130.751C289.985 123.197 284.233 113.753 281.357 102.421C274.262 110.543 268.797 119.042 264.962 127.918C273.591 130.185 281.932 131.318 289.985 131.318Z" fill="#974B00" fill-opacity="0.2"/>
<path d="M8.76578 206.959C3.58859 206.581 1 204.976 1 202.143C1 200.821 1.57524 199.215 2.72573 197.327C3.30097 195.627 4.25971 194.494 5.60194 193.927C4.45146 196.382 3.87621 198.365 3.87621 199.876C3.87621 202.709 6.17718 204.126 10.7791 204.126C21.517 204.126 35.0352 199.215 51.3338 189.394C41.9381 185.239 37.2403 179.101 37.2403 170.98C37.2403 165.503 39.5413 159.931 44.1432 154.265C53.7306 142.744 68.3993 134.717 88.1493 130.185C85.6566 123.008 84.4102 114.886 84.4102 105.821C84.4102 94.3 86.3277 83.4402 90.1627 73.2414C96.2986 56.4323 104.448 43.5894 114.61 34.7127C123.431 26.9691 132.347 23.0974 141.359 23.0974C147.879 23.0974 153.248 25.2693 157.466 29.6133C161.685 33.7683 163.794 39.6232 163.794 47.1778C163.794 53.4104 161.876 60.7762 158.041 69.2752C149.796 86.8398 135.415 105.726 114.898 125.935L126.115 124.802C132.635 118.569 139.25 111.676 145.961 104.121C152.864 96.3776 159.959 88.0674 167.245 79.1907C187.379 54.4492 197.445 37.6401 197.445 28.7634C197.445 24.6083 195.144 22.4363 190.543 22.2475C189.392 22.2475 188.817 21.8697 188.817 21.1143C188.817 20.1699 189.776 19.6978 191.693 19.6978C200.705 20.0755 205.211 23.7584 205.211 30.7465C205.211 35.2793 203.198 41.4174 199.171 49.1609C199.746 49.9164 199.842 51.144 199.459 52.8438C197.733 59.8319 195.528 69.0864 192.844 80.6072C190.351 91.9392 187.475 105.538 184.215 121.402C199.171 119.136 206.649 113.092 206.649 103.271C206.649 101.949 207.225 101.288 208.375 101.288C208.95 101.288 209.43 101.76 209.813 102.705C210.388 115.359 201.664 123.102 183.64 125.935C182.873 130.846 182.297 135.378 181.914 139.534C181.53 143.689 181.339 147.56 181.339 151.149C181.339 154.171 181.435 156.909 181.626 159.365C182.01 161.82 182.393 164.086 182.777 166.164C184.886 174.663 188.721 178.912 194.282 178.912C199.075 178.912 205.02 175.701 212.114 169.28C213.456 168.147 215.278 166.353 217.579 163.897C219.88 161.253 222.852 158.042 226.495 154.265C228.029 152.754 229.084 151.999 229.659 151.999C230.426 151.999 230.81 152.471 230.81 153.415C230.81 153.982 230.618 154.643 230.234 155.398C227.55 158.798 224.674 162.009 221.606 165.031C218.538 167.864 215.182 170.602 211.539 173.246C203.294 179.668 195.911 182.878 189.392 182.878C180.188 182.878 174.244 176.363 171.56 163.331C170.984 160.687 170.697 157.57 170.697 153.982C170.697 146.427 171.847 137.456 174.148 127.068C169.163 127.257 162.835 127.541 155.165 127.918C147.687 128.107 138.962 128.39 128.992 128.768L105.119 151.149C112.214 157.004 121.322 159.931 132.443 159.931C140.113 159.931 145.865 158.042 149.7 154.265C150.084 153.699 150.563 153.699 151.138 154.265C151.522 154.832 151.522 155.304 151.138 155.682C146.92 159.837 140.688 161.914 132.443 161.914C120.746 161.914 110.967 158.892 103.106 152.849C83.7391 170.791 68.591 182.973 57.6614 189.394C63.2221 192.038 70.0291 193.738 78.0826 194.494C79.4248 194.683 80.0959 195.06 80.0959 195.627C80.0959 196.571 79.0413 196.855 76.9321 196.477C68.1117 195.532 60.7294 193.738 54.7852 191.094C35.4187 202.237 20.0789 207.525 8.76578 206.959ZM91.6008 129.335C94.2852 128.957 97.2573 128.485 100.517 127.918C103.777 127.352 107.324 126.879 111.159 126.502C130.717 106.671 145.098 87.312 154.302 68.4253C158.329 60.1152 160.342 52.655 160.342 46.0447C160.342 39.6232 158.521 34.5238 154.877 30.7465C151.426 26.9691 147.016 25.0805 141.647 25.0805C133.593 25.0805 125.444 28.8578 117.199 36.4125C107.995 45.1003 100.421 57.4711 94.477 73.5247C90.4503 84.2901 88.4369 95.6221 88.4369 107.521C88.4369 111.676 88.7245 115.548 89.2998 119.136C89.875 122.724 90.642 126.124 91.6008 129.335ZM134.456 124.235C136.949 123.858 139.921 123.574 143.373 123.385C146.824 123.197 150.659 123.102 154.877 123.102C159.863 122.913 164.081 122.819 167.533 122.819C170.984 122.819 173.477 122.724 175.011 122.536C176.161 118.003 177.6 112.903 179.325 107.237C181.051 101.571 182.873 95.4332 184.79 88.8229L194.282 57.9432C186.42 70.4084 177.216 82.1181 166.67 93.0724C163.985 96.0943 159.863 100.155 154.302 105.254C148.933 110.354 142.318 116.681 134.456 124.235ZM101.668 148.033L120.938 129.901L108.283 132.168L97.3532 142.367C98.1202 143.311 98.7913 144.255 99.3665 145.2C100.134 146.144 100.901 147.088 101.668 148.033ZM96.2027 140.383C97.5449 139.25 98.7913 138.117 99.9418 136.984C101.284 135.851 102.626 134.623 103.968 133.301C102.243 133.679 100.517 134.151 98.7913 134.717C97.0656 135.095 95.4357 135.567 93.9017 136.134L96.2027 140.383ZM54.4976 187.694C59.6748 184.484 66.0024 179.762 73.4806 173.53C81.1505 167.108 89.9709 159.176 99.9418 149.732C98.216 147.844 96.5862 145.955 95.0522 144.066L93.0389 145.766C78.2743 158.042 69.9333 164.181 68.0158 164.181C67.4406 164.181 67.1529 163.897 67.1529 163.331C66.9612 162.953 67.0571 162.575 67.4406 162.198C74.9187 157.476 83.7391 150.866 93.9017 142.367C92.943 140.856 91.9843 139.061 91.0255 136.984C80.4794 140.383 70.9879 145.011 62.551 150.866C51.4296 158.42 45.8689 166.069 45.8689 173.813C45.8689 178.723 48.7452 183.351 54.4976 187.694Z" stroke="#974B00" stroke-opacity="0.2" stroke-width="2" mask="url(#path-1-outside-1_7_155)"/>
<path d="M289.123 183.728C274.55 183.728 263.332 180.706 255.471 174.663C248.568 169.186 245.116 161.725 245.116 152.282C245.116 145.105 246.938 137.55 250.581 129.618C245.212 127.163 240.706 123.48 237.063 118.569C233.612 113.47 231.886 107.898 231.886 101.855C231.886 87.8786 237.926 74.9412 250.006 63.0426C260.936 52.2772 275.7 43.4005 294.3 36.4125C301.394 26.2137 310.311 17.9035 321.049 11.4821C332.362 4.49403 343.866 1 355.563 1C364.192 1 371.191 2.98309 376.559 6.94928C382.12 11.4821 385.667 17.998 387.201 26.497C414.813 31.4075 432.262 42.8339 439.549 60.7762C441.85 66.4422 443 72.2027 443 78.0575C443 91.8448 436.672 106.86 424.017 123.102C409.061 141.989 388.735 156.909 363.041 167.864C338.306 178.44 313.666 183.728 289.123 183.728ZM299.765 34.4294C308.393 31.4075 317.118 29.1411 325.938 27.6302C334.758 25.9304 343.579 24.8916 352.399 24.5139C353.933 24.325 355.467 24.2306 357.001 24.2306C358.727 24.2306 360.261 24.2306 361.603 24.2306C365.246 24.2306 368.794 24.4194 372.245 24.7972C375.697 24.986 378.956 25.2693 382.024 25.6471C379.723 10.3489 371.095 2.69979 356.138 2.69979C351.345 2.69979 345.496 3.73856 338.593 5.81608C323.445 10.9155 310.502 20.4532 299.765 34.4294ZM302.641 130.185C323.158 127.163 341.086 116.397 356.426 97.8885C369.273 82.4014 377.614 65.0257 381.449 45.7613C381.833 43.3061 382.12 40.9453 382.312 38.6789C382.695 36.2236 382.791 33.8628 382.599 31.5964C379.915 31.2186 377.039 30.9353 373.971 30.7465C371.095 30.5576 368.123 30.4632 365.055 30.4632C362.945 30.4632 360.74 30.5576 358.439 30.7465C356.33 30.7465 354.125 30.8409 351.824 31.0298C341.661 31.9741 331.499 33.7683 321.336 36.4125C311.365 39.0566 301.586 42.5506 291.999 46.8945C286.055 58.6043 283.082 71.3528 283.082 85.14V89.3895C293.053 81.0794 303.983 73.9025 315.871 67.8587C321.432 65.0257 326.705 62.7593 331.691 61.0595C336.676 59.1709 341.278 57.8488 345.496 57.0933C347.222 56.7156 348.085 56.9989 348.085 57.9432C348.085 59.0764 347.414 59.7375 346.072 59.9263C336.676 61.6261 326.513 65.8756 315.584 72.6748C303.887 79.6629 293.533 88.3507 284.521 98.7384C287.205 111.392 293.245 121.875 302.641 130.185ZM288.835 178.062C340.223 178.062 382.408 157.098 415.388 115.17C427.085 100.249 432.933 86.3676 432.933 73.5247C432.933 62.9482 428.811 53.977 420.566 46.6112C412.32 39.6232 401.295 34.9015 387.489 32.4463C387.681 34.5238 387.585 36.6958 387.201 38.9622C387.01 41.0397 386.722 43.3061 386.339 45.7613C384.229 56.149 380.97 65.9701 376.559 75.2245C372.149 84.479 366.589 93.1668 359.877 101.288C345.305 118.853 327.856 129.901 307.53 134.434C318.843 142.367 331.499 146.333 345.496 146.333C358.535 146.333 370.04 142.744 380.011 135.567L380.874 135.284C381.257 135.284 381.641 135.473 382.024 135.851C382.024 136.417 381.833 136.889 381.449 137.267C371.478 144.633 359.302 148.316 344.921 148.316C329.39 148.316 315.68 143.972 303.791 135.284C301.298 135.662 298.806 135.945 296.313 136.134C294.012 136.323 291.519 136.417 288.835 136.417C280.014 136.417 271.29 135.19 262.661 132.734C259.977 139.534 258.635 145.672 258.635 151.149C258.635 159.648 261.223 166.258 266.4 170.98C271.769 175.701 279.248 178.062 288.835 178.062ZM253.457 123.952C259.593 112.809 268.222 102.327 279.343 92.5058C279.152 91.3726 279.056 90.2394 279.056 89.1062C279.056 87.7841 279.056 86.4621 279.056 85.14C279.056 72.4859 281.644 60.4929 286.822 49.1609C272.249 56.149 260.744 64.0814 252.307 72.9581C243.103 82.2126 238.501 91.6559 238.501 101.288C238.501 106.199 239.843 110.731 242.528 114.886C245.404 119.042 249.047 122.063 253.457 123.952ZM289.985 131.318C291.519 131.318 292.957 131.318 294.3 131.318C295.834 131.129 297.272 130.94 298.614 130.751C289.985 123.197 284.233 113.753 281.357 102.421C274.262 110.543 268.797 119.042 264.962 127.918C273.591 130.185 281.932 131.318 289.985 131.318Z" stroke="#974B00" stroke-opacity="0.2" stroke-width="2" mask="url(#path-1-outside-1_7_155)"/>
</svg>
