<svg width="40" height="40" viewBox="0 0 40 40" fill="none" xmlns="http://www.w3.org/2000/svg">
<g id="mynaui:location">
<g id="Group">
<path id="Vector" d="M20.9333 34.7C20.6613 34.8953 20.3349 35.0004 20 35.0004C19.6651 35.0004 19.3387 34.8953 19.0667 34.7C11.0183 28.9633 2.47667 17.1633 11.1117 8.63667C13.4822 6.30475 16.6747 4.99854 20 5C23.3333 5 26.5317 6.30833 28.8883 8.635C37.5233 17.1617 28.9817 28.96 20.9333 34.7Z" stroke="black" stroke-width="1.5" stroke-linecap="round" stroke-linejoin="round"/>
<path id="Vector_2" d="M20 20C20.884 20 21.7319 19.6489 22.357 19.0237C22.9821 18.3986 23.3333 17.5508 23.3333 16.6667C23.3333 15.7827 22.9821 14.9348 22.357 14.3097C21.7319 13.6846 20.884 13.3334 20 13.3334C19.1159 13.3334 18.2681 13.6846 17.643 14.3097C17.0178 14.9348 16.6667 15.7827 16.6667 16.6667C16.6667 17.5508 17.0178 18.3986 17.643 19.0237C18.2681 19.6489 19.1159 20 20 20Z" stroke="black" stroke-width="1.5" stroke-linecap="round" stroke-linejoin="round"/>
</g>
</g>
</svg>
