<svg width="59" height="59" viewBox="0 0 59 59" fill="none" xmlns="http://www.w3.org/2000/svg">
<g id="Frame 4">
<circle id="Ellipse 1" cx="29.5" cy="29.5" r="29" stroke="#974B00"/>
<g id="AO">
<path d="M1.01904 42.9946C0.33968 42.9451 0 42.7347 0 42.3634C0 42.1901 0.0754843 41.9797 0.226453 41.7321C0.301937 41.5093 0.427745 41.3608 0.603875 41.2866C0.452906 41.6084 0.377421 41.8683 0.377421 42.0663C0.377421 42.4376 0.679359 42.6233 1.28323 42.6233C2.69228 42.6233 4.46616 41.9797 6.60488 40.6925C5.37197 40.1479 4.75551 39.3433 4.75551 38.2789C4.75551 37.561 5.05745 36.8308 5.66133 36.0882C6.9194 34.5781 8.84425 33.5261 11.4359 32.932C11.1088 31.9913 10.9452 30.9269 10.9452 29.7387C10.9452 28.2286 11.1968 26.8053 11.7001 25.4685C12.5052 23.2654 13.5746 21.5821 14.9082 20.4187C16.0656 19.4037 17.2356 18.8963 18.4182 18.8963C19.2737 18.8963 19.9782 19.1809 20.5317 19.7503C21.0853 20.2949 21.3621 21.0623 21.3621 22.0524C21.3621 22.8693 21.1105 23.8347 20.6072 24.9487C19.5253 27.2508 17.6382 29.7263 14.9459 32.375L16.4178 32.2265C17.2733 31.4096 18.1414 30.506 19.0221 29.5159C19.9279 28.5009 20.8588 27.4118 21.815 26.2483C24.4569 23.0055 25.7779 20.8023 25.7779 19.6389C25.7779 19.0943 25.476 18.8096 24.8721 18.7849C24.7211 18.7849 24.6456 18.7354 24.6456 18.6363C24.6456 18.5126 24.7715 18.4507 25.0231 18.4507C26.2057 18.5002 26.7969 18.9829 26.7969 19.8988C26.7969 20.4929 26.5328 21.2974 26.0044 22.3124C26.0798 22.4114 26.0924 22.5723 26.0421 22.7951C25.8157 23.711 25.5263 24.9239 25.174 26.434C24.8469 27.9192 24.4695 29.7015 24.0418 31.7809C26.0044 31.4838 26.9857 30.6917 26.9857 29.4045C26.9857 29.2312 27.0611 29.1446 27.2121 29.1446C27.2876 29.1446 27.3505 29.2064 27.4008 29.3302C27.4763 30.9888 26.3315 32.0037 23.9663 32.375C23.8656 33.0186 23.7902 33.6127 23.7398 34.1573C23.6895 34.7019 23.6643 35.2094 23.6643 35.6797C23.6643 36.0758 23.6769 36.4347 23.7021 36.7565C23.7524 37.0783 23.8027 37.3754 23.8531 37.6477C24.1298 38.7616 24.6331 39.3186 25.3627 39.3186C25.9918 39.3186 26.7718 38.8978 27.7028 38.0561C27.8789 37.9076 28.1179 37.6724 28.4199 37.3506C28.7218 37.0041 29.1118 36.5832 29.5899 36.0882C29.7912 35.8901 29.9295 35.7911 30.005 35.7911C30.1057 35.7911 30.156 35.853 30.156 35.9768C30.156 36.051 30.1308 36.1377 30.0805 36.2367C29.7283 36.6823 29.3508 37.1031 28.9483 37.4991C28.5457 37.8705 28.1053 38.2294 27.6273 38.576C26.5453 39.4176 25.5766 39.8384 24.7211 39.8384C23.5134 39.8384 22.7334 38.9844 22.3811 37.2764C22.3056 36.9298 22.2679 36.5213 22.2679 36.051C22.2679 35.0608 22.4189 33.885 22.7208 32.5235C22.0666 32.5483 21.2363 32.5854 20.2298 32.6349C19.2485 32.6597 18.1037 32.6968 16.7953 32.7463L13.6627 35.6797C14.5936 36.4471 15.7888 36.8308 17.2482 36.8308C18.2546 36.8308 19.0095 36.5832 19.5127 36.0882C19.563 36.0139 19.6259 36.0139 19.7014 36.0882C19.7517 36.1624 19.7517 36.2243 19.7014 36.2738C19.1479 36.8184 18.3301 37.0907 17.2482 37.0907C15.7133 37.0907 14.4301 36.6946 13.3985 35.9025C10.8572 38.2542 8.86941 39.8508 7.43521 40.6925C8.16489 41.039 9.05812 41.2618 10.1149 41.3608C10.291 41.3856 10.3791 41.4351 10.3791 41.5093C10.3791 41.6331 10.2407 41.6703 9.96394 41.6207C8.80651 41.497 7.83779 41.2618 7.05779 40.9152C4.51648 42.3758 2.50356 43.0689 1.01904 42.9946ZM11.8888 32.8206C12.241 32.7711 12.631 32.7092 13.0588 32.6349C13.4865 32.5607 13.952 32.4988 14.4553 32.4493C17.0217 29.8501 18.9088 27.3127 20.1166 24.8373C20.645 23.7481 20.9092 22.7703 20.9092 21.9039C20.9092 21.0623 20.6701 20.3939 20.1921 19.8988C19.7392 19.4037 19.1604 19.1562 18.4559 19.1562C17.3991 19.1562 16.3298 19.6513 15.2478 20.6414C14.0401 21.7801 13.0462 23.4015 12.2662 25.5057C11.7378 26.9167 11.4736 28.4019 11.4736 29.9614C11.4736 30.506 11.5114 31.0135 11.5868 31.4838C11.6623 31.9542 11.763 32.3998 11.8888 32.8206ZM17.5124 32.1522C17.8395 32.1027 18.2295 32.0656 18.6824 32.0408C19.1353 32.0161 19.6385 32.0037 20.1921 32.0037C20.8463 31.9789 21.3998 31.9666 21.8527 31.9666C22.3056 31.9666 22.6327 31.9542 22.834 31.9294C22.985 31.3353 23.1737 30.6669 23.4002 29.9243C23.6266 29.1817 23.8656 28.3772 24.1173 27.5108L25.3627 23.4634C24.3311 25.0972 23.1234 26.632 21.7395 28.0677C21.3872 28.4638 20.8463 28.996 20.1166 29.6644C19.4121 30.3328 18.544 31.162 17.5124 32.1522ZM13.2098 35.2713L15.7385 32.8948L14.0778 33.1919L12.6436 34.5286C12.7443 34.6524 12.8323 34.7762 12.9078 34.8999C13.0085 35.0237 13.1091 35.1475 13.2098 35.2713ZM12.4927 34.2687C12.6688 34.1202 12.8323 33.9717 12.9833 33.8231C13.1594 33.6746 13.3356 33.5137 13.5117 33.3404C13.2852 33.3899 13.0588 33.4518 12.8323 33.5261C12.6059 33.5756 12.392 33.6375 12.1907 33.7117L12.4927 34.2687ZM7.02005 40.4697C7.6994 40.0488 8.52973 39.43 9.51103 38.6131C10.5175 37.7714 11.6749 36.7318 12.9833 35.494C12.7569 35.2465 12.543 34.999 12.3417 34.7514L12.0775 34.9742C10.1401 36.5832 9.04554 37.3878 8.79393 37.3878C8.71844 37.3878 8.6807 37.3506 8.6807 37.2764C8.65554 37.2268 8.66812 37.1773 8.71844 37.1278C9.69974 36.509 10.8572 35.6426 12.1907 34.5286C12.0649 34.3306 11.9391 34.0954 11.8133 33.8231C10.4294 34.2687 9.18393 34.8752 8.07683 35.6426C6.61746 36.6327 5.88778 37.6353 5.88778 38.6502C5.88778 39.2938 6.2652 39.9003 7.02005 40.4697Z" fill="#974B00"/>
<path d="M37.8079 39.9498C35.8957 39.9498 34.4237 39.5538 33.3921 38.7616C32.4863 38.0437 32.0334 37.0659 32.0334 35.8282C32.0334 34.8876 32.2724 33.8974 32.7505 32.8577C32.046 32.5359 31.4547 32.0532 30.9766 31.4096C30.5237 30.7412 30.2972 30.011 30.2972 29.2188C30.2972 27.387 31.0898 25.6913 32.675 24.1318C34.1092 22.7208 36.0466 21.5573 38.4873 20.6414C39.4183 19.3047 40.5883 18.2155 41.9973 17.3739C43.4818 16.458 44.9915 16 46.5264 16C47.6586 16 48.577 16.2599 49.2816 16.7798C50.0112 17.3739 50.4767 18.2279 50.678 19.3418C54.3013 19.9854 56.591 21.4831 57.5471 23.8347C57.849 24.5774 58 25.3324 58 26.0998C58 27.9068 57.1697 29.8748 55.509 32.0037C53.5464 34.4791 50.8793 36.4347 47.5077 37.8705C44.2618 39.2567 41.0286 39.9498 37.8079 39.9498ZM39.2044 20.3815C40.3367 19.9854 41.4815 19.6884 42.6389 19.4904C43.7964 19.2676 44.9538 19.1314 46.1112 19.0819C46.3125 19.0572 46.5138 19.0448 46.7151 19.0448C46.9415 19.0448 47.1428 19.0448 47.319 19.0448C47.797 19.0448 48.2625 19.0695 48.7154 19.119C49.1683 19.1438 49.5961 19.1809 49.9987 19.2304C49.6967 17.2253 48.5645 16.2228 46.6019 16.2228C45.9728 16.2228 45.2054 16.3589 44.2996 16.6312C42.3118 17.2996 40.6134 18.5497 39.2044 20.3815ZM39.5818 32.932C42.2741 32.5359 44.6267 31.1249 46.6396 28.699C48.3254 26.6691 49.4199 24.3917 49.9232 21.8668C49.9735 21.545 50.0112 21.2355 50.0364 20.9385C50.0867 20.6167 50.0993 20.3073 50.0741 20.0102C49.7219 19.9607 49.3445 19.9236 48.9419 19.8988C48.5645 19.8741 48.1744 19.8617 47.7719 19.8617C47.4951 19.8617 47.2057 19.8741 46.9038 19.8988C46.627 19.8988 46.3377 19.9112 46.0357 19.9359C44.7022 20.0597 43.3686 20.2949 42.0351 20.6414C40.7267 20.988 39.4434 21.446 38.1854 22.0153C37.4053 23.5501 37.0153 25.221 37.0153 27.0281V27.585C38.3237 26.4958 39.7579 25.5552 41.318 24.763C42.0476 24.3917 42.7396 24.0947 43.3938 23.8719C44.048 23.6243 44.6519 23.4511 45.2054 23.352C45.4319 23.3025 45.5451 23.3397 45.5451 23.4634C45.5451 23.612 45.457 23.6986 45.2809 23.7234C44.048 23.9461 42.7144 24.5031 41.2802 25.3943C39.7454 26.3102 38.3866 27.4489 37.2041 28.8104C37.5563 30.4689 38.3489 31.8428 39.5818 32.932ZM37.7702 39.2072C44.5135 39.2072 50.049 36.4595 54.3768 30.964C55.9116 29.0084 56.679 27.189 56.679 25.5057C56.679 24.1194 56.1381 22.9436 55.0561 21.9782C53.9742 21.0623 52.5274 20.4434 50.7158 20.1216C50.7409 20.3939 50.7283 20.6786 50.678 20.9756C50.6529 21.2479 50.6151 21.545 50.5648 21.8668C50.288 23.2283 49.8603 24.5155 49.2816 25.7285C48.7028 26.9414 47.9732 28.0801 47.0925 29.1446C45.1802 31.4467 42.8905 32.8948 40.2234 33.4889C41.708 34.5286 43.3686 35.0485 45.2054 35.0485C46.9164 35.0485 48.4261 34.5781 49.7345 33.6375L49.8477 33.6003C49.898 33.6003 49.9483 33.6251 49.9987 33.6746C49.9987 33.7489 49.9735 33.8107 49.9232 33.8603C48.6148 34.8257 47.017 35.3084 45.1299 35.3084C43.0918 35.3084 41.2928 34.739 39.7328 33.6003C39.4057 33.6498 39.0786 33.687 38.7515 33.7117C38.4496 33.7365 38.1224 33.7489 37.7702 33.7489C36.6128 33.7489 35.4679 33.588 34.3357 33.2662C33.9834 34.1573 33.8073 34.9618 33.8073 35.6797C33.8073 36.7936 34.1469 37.66 34.8263 38.2789C35.5308 38.8978 36.5121 39.2072 37.7702 39.2072ZM33.1279 32.1151C33.9331 30.6546 35.0653 29.2807 36.5247 27.9935C36.4995 27.845 36.487 27.6964 36.487 27.5479C36.487 27.3746 36.487 27.2013 36.487 27.0281C36.487 25.3695 36.8266 23.7976 37.506 22.3124C35.5937 23.2283 34.084 24.2679 32.9769 25.4314C31.7692 26.6444 31.1653 27.8821 31.1653 29.1446C31.1653 29.7882 31.3414 30.3823 31.6937 30.9269C32.0711 31.4715 32.5492 31.8675 33.1279 32.1151ZM37.9212 33.0805C38.1225 33.0805 38.3112 33.0805 38.4873 33.0805C38.6886 33.0557 38.8773 33.031 39.0534 33.0062C37.9212 32.0161 37.1663 30.7783 36.7889 29.2931C35.8579 30.3575 35.1408 31.4715 34.6376 32.6349C35.7699 32.932 36.8644 33.0805 37.9212 33.0805Z" fill="#974B00"/>
</g>
</g>
</svg>
